<svg data-v-fde0c5aa="" xmlns="http://www.w3.org/2000/svg" viewBox="0 0 300 300" class="iconLeftSlogan"><!----><defs data-v-fde0c5aa=""><!----></defs><rect data-v-fde0c5aa="" fill="#FFFFFF" x="0" y="0" class="logo-background-square"></rect><defs data-v-fde0c5aa=""><!----></defs><g data-v-fde0c5aa="" id="ab434331-49dc-43f0-b538-c9e080f1ae7e" fill="#000000" transform="matrix(2.8591117591111015,0,0,2.8591117591111015,90.88353815341415,117.58456337230314)"><path d="M7.64 11.07L7.70 11.07L11.34 2.80L14.48 2.80L14.48 3.33Q14.03 3.35 13.76 3.44Q13.48 3.54 13.34 3.77Q13.19 4.00 13.14 4.41Q13.09 4.82 13.09 5.45L13.09 5.45L13.09 10.93Q13.09 11.63 13.15 12.04Q13.20 12.45 13.36 12.67Q13.52 12.89 13.83 12.96Q14.13 13.03 14.62 13.05L14.62 13.05L14.62 13.58L10.08 13.58L10.08 13.05Q10.57 13.03 10.87 12.96Q11.17 12.88 11.34 12.67Q11.51 12.46 11.56 12.07Q11.62 11.69 11.62 11.03L11.62 11.03L11.62 4.54L11.48 4.54L7.39 13.72L7.08 13.72L3.07 4.54L3.01 4.54L3.01 10.93Q3.01 11.63 3.07 12.04Q3.12 12.45 3.28 12.67Q3.44 12.89 3.75 12.96Q4.05 13.03 4.54 13.05L4.54 13.05L4.54 13.58L0.63 13.58L0.63 13.05Q1.12 13.03 1.42 12.96Q1.72 12.88 1.89 12.67Q2.06 12.46 2.11 12.07Q2.17 11.69 2.17 11.03L2.17 11.03L2.17 5.35Q2.17 4.76 2.12 4.38Q2.07 3.99 1.93 3.77Q1.78 3.54 1.50 3.45Q1.22 3.36 0.77 3.33L0.77 3.33L0.77 2.80L4.12 2.80L7.64 11.07ZM21.78 11.89L22.22 12.28Q21.03 13.72 19.26 13.72L19.26 13.72Q18.44 13.72 17.77 13.45Q17.09 13.17 16.61 12.68Q16.13 12.18 15.86 11.49Q15.60 10.79 15.60 9.95L15.60 9.95Q15.60 9.10 15.88 8.37Q16.16 7.64 16.67 7.13Q17.18 6.61 17.89 6.31Q18.59 6.02 19.43 6.02L19.43 6.02Q20.79 6.02 21.53 6.75Q22.27 7.49 22.27 8.86L22.27 8.86Q22.27 9.06 22.20 9.10Q22.12 9.14 21.84 9.14L21.84 9.14L17.23 9.14Q17.21 9.25 17.19 9.41Q17.18 9.58 17.18 9.77L17.18 9.77Q17.18 10.50 17.35 11.10Q17.53 11.69 17.86 12.11Q18.19 12.53 18.64 12.76Q19.10 12.99 19.66 12.99L19.66 12.99Q20.24 12.99 20.75 12.73Q21.25 12.47 21.78 11.89L21.78 11.89ZM17.33 8.50L19.91 8.50Q20.19 8.50 20.36 8.48Q20.52 8.47 20.61 8.43Q20.69 8.39 20.72 8.31Q20.75 8.23 20.75 8.11L20.75 8.11Q20.75 7.46 20.34 7.08Q19.92 6.69 19.21 6.69L19.21 6.69Q17.70 6.69 17.33 8.50L17.33 8.50ZM29.71 13.72L29.71 12.40L29.65 12.40Q29.15 13.12 28.58 13.42Q28.01 13.72 27.24 13.72L27.24 13.72Q26.45 13.72 25.78 13.43Q25.12 13.15 24.63 12.63Q24.15 12.12 23.88 11.41Q23.60 10.70 23.60 9.86L23.60 9.86Q23.60 9.03 23.88 8.32Q24.15 7.62 24.63 7.10Q25.12 6.59 25.79 6.31Q26.46 6.02 27.24 6.02L27.24 6.02Q27.92 6.02 28.44 6.24Q28.97 6.47 29.46 6.96L29.46 6.96L29.46 5.53Q29.46 4.73 29.44 4.20Q29.41 3.67 29.37 3.47L29.37 3.47Q29.30 3.16 28.98 3.04Q28.66 2.91 27.93 2.91L27.93 2.91L27.93 2.49L30.80 1.96L30.80 10.04Q30.80 11.00 30.81 11.63Q30.83 12.25 30.90 12.52L30.90 12.52Q30.94 12.68 31.00 12.80Q31.07 12.91 31.19 12.97Q31.30 13.03 31.51 13.06Q31.71 13.09 32.03 13.09L32.03 13.09L32.03 13.57L29.71 13.72ZM29.43 10.23L29.43 9.31Q29.43 8.58 29.35 8.20Q29.27 7.83 29.05 7.55L29.05 7.55Q28.73 7.13 28.23 6.91Q27.73 6.69 27.24 6.69L27.24 6.69Q26.24 6.69 25.71 7.53Q25.19 8.36 25.19 9.79L25.19 9.79Q25.19 10.53 25.32 11.13Q25.45 11.73 25.71 12.16Q25.97 12.59 26.36 12.82Q26.74 13.05 27.24 13.05L27.24 13.05Q27.50 13.05 27.76 12.99Q28.01 12.94 28.26 12.82Q28.50 12.70 28.71 12.54Q28.92 12.38 29.06 12.17L29.06 12.17Q29.26 11.86 29.34 11.42Q29.43 10.99 29.43 10.23L29.43 10.23ZM35.57 6.02L35.57 11.35Q35.57 11.90 35.62 12.23Q35.67 12.56 35.81 12.75Q35.95 12.94 36.20 13.01Q36.46 13.08 36.88 13.09L36.88 13.09L36.88 13.58L32.86 13.58L32.86 13.09Q33.28 13.08 33.54 13.00Q33.81 12.92 33.96 12.75Q34.10 12.57 34.15 12.26Q34.20 11.94 34.20 11.45L34.20 11.45L34.20 9.66Q34.20 8.85 34.18 8.32Q34.16 7.80 34.10 7.60L34.10 7.60Q34.03 7.28 33.78 7.16Q33.53 7.04 32.83 7.04L32.83 7.04L32.83 6.55L35.57 6.02ZM33.96 3.18L33.96 3.18Q33.96 2.81 34.22 2.56Q34.47 2.31 34.83 2.31L34.83 2.31Q35.20 2.31 35.45 2.56Q35.70 2.81 35.70 3.18L35.70 3.18Q35.70 3.54 35.45 3.79Q35.20 4.05 34.83 4.05L34.83 4.05Q34.47 4.05 34.22 3.79Q33.96 3.54 33.96 3.18ZM38.56 7.04L37.72 7.04L37.72 6.52Q38.46 6.09 38.88 5.66Q39.30 5.22 39.52 4.62L39.52 4.62L39.93 4.62L39.93 6.38L41.80 6.38L41.80 7.04L39.93 7.04L39.93 11.30Q39.93 11.79 39.98 12.12Q40.03 12.46 40.14 12.66Q40.25 12.87 40.43 12.95Q40.61 13.03 40.89 13.03L40.89 13.03Q41.24 13.03 41.49 12.89Q41.73 12.74 41.97 12.39L41.97 12.39L42.32 12.66Q42.13 13.17 41.64 13.45Q41.16 13.72 40.45 13.72L40.45 13.72Q39.52 13.72 39.04 13.28Q38.56 12.84 38.56 12.01L38.56 12.01L38.56 7.04ZM47.33 10.54L47.33 9.44Q46.54 9.74 45.98 10.04Q45.43 10.33 45.09 10.63Q44.76 10.92 44.61 11.21Q44.46 11.51 44.46 11.82L44.46 11.82Q44.46 12.28 44.77 12.57Q45.08 12.87 45.58 12.87L45.58 12.87Q45.95 12.87 46.26 12.68Q46.58 12.50 46.82 12.19Q47.05 11.87 47.19 11.45Q47.33 11.02 47.33 10.54L47.33 10.54ZM45.32 9.72L47.33 8.83L47.33 8.26Q47.33 6.55 45.88 6.55L45.88 6.55Q45.64 6.55 45.47 6.59Q45.30 6.64 45.19 6.73Q45.08 6.83 44.99 7.01Q44.90 7.20 44.81 7.46L44.81 7.46Q44.66 7.87 44.51 8.00Q44.37 8.13 44.09 8.13L44.09 8.13Q43.39 8.13 43.39 7.43L43.39 7.43Q43.39 6.76 44.10 6.39Q44.81 6.02 46.13 6.02L46.13 6.02Q47.53 6.02 48.12 6.52Q48.71 7.01 48.71 8.20L48.71 8.20L48.71 11.34Q48.71 12.94 49.34 12.94L49.34 12.94Q49.53 12.94 49.71 12.89Q49.90 12.84 50.02 12.63L50.02 12.63L50.22 12.96Q50.05 13.29 49.60 13.50Q49.15 13.72 48.66 13.72L48.66 13.72Q48.05 13.72 47.75 13.33Q47.45 12.94 47.45 12.22L47.45 12.22L47.38 12.22Q47.01 12.91 46.37 13.31Q45.72 13.71 44.94 13.71L44.94 13.71Q44.06 13.71 43.55 13.26Q43.05 12.81 43.05 12.05L43.05 12.05Q43.05 11.72 43.17 11.41Q43.29 11.10 43.55 10.82Q43.82 10.54 44.25 10.27Q44.69 10.00 45.32 9.72L45.32 9.72ZM53.40 6.02L53.40 11.35Q53.40 11.90 53.45 12.23Q53.49 12.56 53.63 12.75Q53.77 12.94 54.03 13.01Q54.28 13.08 54.70 13.09L54.70 13.09L54.70 13.58L50.68 13.58L50.68 13.09Q51.10 13.08 51.37 13.00Q51.63 12.92 51.78 12.75Q51.93 12.57 51.98 12.26Q52.02 11.94 52.02 11.45L52.02 11.45L52.02 9.66Q52.02 8.85 52.00 8.32Q51.98 7.80 51.93 7.60L51.93 7.60Q51.86 7.28 51.60 7.16Q51.35 7.04 50.65 7.04L50.65 7.04L50.65 6.55L53.40 6.02ZM51.79 3.18L51.79 3.18Q51.79 2.81 52.04 2.56Q52.29 2.31 52.65 2.31L52.65 2.31Q53.02 2.31 53.27 2.56Q53.52 2.81 53.52 3.18L53.52 3.18Q53.52 3.54 53.27 3.79Q53.02 4.05 52.65 4.05L52.65 4.05Q52.29 4.05 52.04 3.79Q51.79 3.54 51.79 3.18ZM57.90 1.96L57.90 11.40Q57.90 11.93 57.95 12.25Q57.99 12.57 58.12 12.75Q58.25 12.94 58.50 13.01Q58.74 13.08 59.15 13.09L59.15 13.09L59.15 13.58L55.29 13.58L55.29 13.09Q55.71 13.08 55.96 13.00Q56.21 12.92 56.36 12.75Q56.50 12.59 56.55 12.29Q56.60 11.98 56.60 11.49L56.60 11.49L56.60 5.46Q56.60 4.70 56.58 4.19Q56.56 3.68 56.52 3.50L56.52 3.50Q56.45 3.18 56.19 3.07Q55.93 2.95 55.26 2.95L55.26 2.95L55.26 2.48L57.90 1.96Z"></path></g><defs data-v-fde0c5aa=""><!----></defs><g data-v-fde0c5aa="" id="1f7b00bf-9092-4f14-b742-d8695533ed42" stroke="#000000" fill="none" transform="matrix(0.8789930061374452,0,0,0.8789930061374452,15.892737290592041,106.4678725446253)"><path stroke-width="3" stroke-linecap="round" stroke-miterlimit="10" d="M37.625 21.048h34.949m-45.148 0h6.199m38.949 54.866H27.426m0-50.534v60.81a3.366 3.366 0 003.365 3.365h38.418a3.365 3.365 0 003.365-3.365V12.86a3.365 3.365 0 00-3.365-3.365H30.791a3.366 3.366 0 00-3.365 3.365v12.52m30.235-10.542h-1.036m-4 0H46.27m3.382 64.922a2.914 2.914 0 100 5.827 2.914 2.914 0 000-5.827z"></path><path stroke="#000" stroke-width="2" stroke-miterlimit="10" d="M58.374 46.229h-4.98v-4.98h-6v4.98h-4.982v6h4.982v4.981h6v-4.981h4.98z"></path></g><defs data-v-fde0c5aa=""><!----></defs><g data-v-fde0c5aa="" id="e8048ae0-34ff-4a00-803e-3ddcb0174867" fill="#000000" transform="matrix(0.4884973623814006,0,0,0.4884973623814006,92.0057672212987,165.08718179554234)"><path d="M1.39 13.86L1.39 13.86Q1.39 13.36 1.65 12.46Q1.90 11.56 2.32 10.50Q2.74 9.44 3.28 8.30Q3.81 7.17 4.35 6.19Q4.89 5.21 5.38 4.49Q5.88 3.78 6.23 3.53L6.23 3.53Q6.43 3.54 6.66 3.70Q6.89 3.85 7.08 4.07Q7.28 4.28 7.41 4.52Q7.55 4.76 7.55 4.96L7.55 4.96Q6.92 5.46 6.27 6.25Q5.61 7.04 5.03 7.99Q4.44 8.93 3.94 9.99Q3.44 11.05 3.11 12.07L3.11 12.07Q3.56 11.30 4.05 10.67Q4.54 10.04 5.03 9.59Q5.52 9.14 5.99 8.90Q6.45 8.65 6.87 8.64L6.87 8.64Q7.49 9.09 7.49 9.83L7.49 9.83Q7.49 10.28 7.31 10.73Q7.13 11.19 6.83 11.57Q6.52 11.96 6.14 12.23Q5.75 12.50 5.33 12.59L5.33 12.59Q5.47 13.08 5.69 13.58Q5.91 14.08 6.21 14.56Q6.51 15.04 6.90 15.44Q7.28 15.85 7.77 16.13L7.77 16.13Q7.70 16.27 7.56 16.41Q7.42 16.55 7.22 16.65Q7.03 16.76 6.80 16.82Q6.57 16.88 6.34 16.88L6.34 16.88Q5.96 16.88 5.63 16.51Q5.31 16.13 5.04 15.41L5.04 15.41Q4.83 14.84 4.63 14.04Q4.44 13.24 4.28 12.38L4.28 12.38Q4.48 12.25 4.77 12.00Q5.07 11.76 5.39 11.44L5.39 11.44Q6.62 10.25 6.62 9.38L6.62 9.38Q6.62 9.27 6.47 9.27L6.47 9.27Q6.19 9.28 5.81 9.53Q5.43 9.79 5.00 10.23Q4.58 10.68 4.14 11.28Q3.70 11.89 3.29 12.59L3.29 12.59Q3.12 12.87 2.98 13.23Q2.84 13.59 2.74 13.98Q2.63 14.36 2.58 14.74Q2.52 15.12 2.52 15.44L2.52 15.44Q2.52 15.64 2.56 15.76L2.56 15.76Q2.13 15.72 2.03 15.54L2.03 15.54Q1.92 15.37 1.84 15.27Q1.76 15.16 1.68 15.09L1.68 15.09Q1.55 14.99 1.47 14.67Q1.39 14.35 1.39 13.86ZM17.74 8.39L17.74 8.39Q18.10 8.50 18.42 8.88Q18.75 9.27 18.90 9.73L18.90 9.73Q18.75 10.11 18.42 10.64Q18.10 11.17 17.78 11.72Q17.46 12.28 17.20 12.78Q16.94 13.27 16.90 13.59L16.90 13.59Q17.12 13.36 17.39 13.04Q17.67 12.73 17.93 12.41Q18.19 12.10 18.41 11.84Q18.63 11.58 18.76 11.45L18.76 11.45Q19.03 11.17 19.39 10.80Q19.75 10.43 20.15 10.10Q20.55 9.77 20.96 9.54Q21.36 9.31 21.70 9.31L21.70 9.31Q22.06 9.31 22.31 9.55Q22.55 9.80 22.69 10.07L22.69 10.07Q22.69 10.09 22.59 10.14Q22.48 10.19 22.29 10.42L22.29 10.42Q22.09 10.67 21.85 11.11Q21.60 11.55 21.37 12.06Q21.14 12.57 20.99 13.10Q20.83 13.64 20.83 14.07L20.83 14.07Q20.83 14.42 20.92 14.52Q21.01 14.62 21.18 14.62L21.18 14.62Q21.34 14.62 21.50 14.55Q21.67 14.48 21.77 14.48L21.77 14.48Q21.83 14.50 21.86 14.60Q21.90 14.69 21.90 14.76L21.90 14.76Q21.78 14.85 21.63 14.95Q21.48 15.05 21.31 15.13Q21.14 15.22 20.98 15.27Q20.82 15.33 20.69 15.33L20.69 15.33Q20.29 15.33 20.03 15.21Q19.77 15.09 19.62 14.90Q19.47 14.70 19.42 14.43Q19.36 14.15 19.36 13.85L19.36 13.85Q19.36 13.68 19.39 13.47Q19.42 13.26 19.50 12.97Q19.59 12.68 19.74 12.29Q19.89 11.89 20.13 11.33L20.13 11.33Q20.10 11.33 19.75 11.52Q19.40 11.72 19.00 12.12L19.00 12.12Q18.34 12.75 17.82 13.37Q17.29 13.99 16.74 14.74L16.74 14.74Q16.44 15.18 16.20 15.48Q15.97 15.78 15.81 15.88L15.81 15.88Q15.51 15.71 15.37 15.41Q15.23 15.11 15.16 14.78L15.16 14.78Q15.16 14.52 15.24 14.11Q15.32 13.71 15.45 13.21Q15.58 12.71 15.78 12.17Q15.97 11.62 16.21 11.07L16.21 11.07Q16.74 9.84 17.18 9.14Q17.63 8.44 17.74 8.39ZM31.68 15.67L31.68 15.67Q30.88 15.58 30.41 14.97Q29.93 14.35 29.93 13.40L29.93 13.40Q29.93 12.84 30.10 12.24Q30.27 11.63 30.58 11.07Q30.88 10.50 31.30 10.00Q31.72 9.49 32.21 9.13L32.21 9.13Q32.98 8.55 33.66 8.55L33.66 8.55Q34.10 8.79 34.54 9.55L34.54 9.55Q34.61 9.55 34.66 9.54Q34.72 9.53 34.79 9.53L34.79 9.53Q35.53 9.53 35.53 10.85L35.53 10.85Q35.53 11.73 35.25 12.52Q34.96 13.31 34.45 13.96Q33.94 14.60 33.23 15.04Q32.52 15.48 31.68 15.67ZM32.40 11.26L32.40 11.26Q32.16 11.58 31.95 11.96Q31.74 12.33 31.58 12.72Q31.43 13.10 31.35 13.46Q31.26 13.82 31.26 14.10L31.26 14.10Q31.26 14.43 31.37 14.74Q31.49 15.05 31.63 15.09L31.63 15.09Q32.26 14.95 32.78 14.57Q33.31 14.18 33.69 13.61Q34.08 13.03 34.29 12.31Q34.51 11.58 34.51 10.75L34.51 10.75Q34.51 10.39 34.47 10.18Q34.43 9.97 34.33 9.81L34.33 9.81Q33.71 10.00 33.23 10.40Q32.75 10.81 32.40 11.26ZM43.33 14.60L43.33 14.60Q43.33 14.32 43.39 13.82Q43.46 13.31 43.56 12.73Q43.67 12.14 43.80 11.52Q43.93 10.91 44.07 10.42L44.07 10.42Q44.25 9.76 44.64 9.40Q45.02 9.04 45.60 9.04L45.60 9.04Q45.91 9.04 46.21 9.14Q46.51 9.24 46.56 9.39L46.56 9.39Q46.16 9.73 45.91 10.23Q45.67 10.72 45.52 11.29Q45.37 11.86 45.30 12.45Q45.22 13.05 45.14 13.57L45.14 13.57Q45.60 12.95 46.01 12.45Q46.42 11.96 46.75 11.66L46.75 11.66Q47.18 11.26 47.33 10.98Q47.49 10.71 47.60 10.39L47.60 10.39Q47.68 10.14 47.80 9.80Q47.92 9.46 48.20 9.18L48.20 9.18Q48.26 9.17 48.44 9.17L48.44 9.17Q48.58 9.17 48.74 9.18Q48.90 9.20 49.04 9.24Q49.18 9.28 49.28 9.34Q49.38 9.39 49.39 9.48L49.39 9.48Q49.17 9.77 48.97 10.39Q48.78 11.02 48.62 11.76Q48.47 12.50 48.34 13.24Q48.22 13.97 48.12 14.48L48.12 14.48Q48.17 14.45 48.37 14.25Q48.57 14.06 48.81 13.76Q49.06 13.47 49.33 13.12Q49.60 12.77 49.81 12.43L49.81 12.43Q50.08 12.03 50.25 11.67Q50.43 11.31 50.56 10.91Q50.69 10.50 50.81 10.00Q50.92 9.51 51.04 8.82L51.04 8.82Q51.13 8.71 51.42 8.63Q51.70 8.55 51.94 8.55L51.94 8.55Q52.15 8.55 52.25 8.62L52.25 8.62Q52.18 9.41 51.99 10.02Q51.80 10.64 51.48 11.22Q51.16 11.80 50.68 12.38Q50.20 12.96 49.56 13.65L49.56 13.65Q49.29 13.93 48.98 14.27Q48.66 14.60 48.36 14.89Q48.06 15.18 47.80 15.37Q47.54 15.57 47.40 15.57L47.40 15.57Q47.08 15.57 46.87 15.32Q46.66 15.06 46.66 14.67L46.66 14.67Q46.66 14.27 46.70 13.96Q46.73 13.66 46.82 13.33L46.82 13.33Q46.90 13.02 46.95 12.81Q47.00 12.60 47.03 12.45Q47.07 12.29 47.08 12.18Q47.10 12.07 47.11 11.96L47.11 11.96Q47.00 12.01 46.82 12.19Q46.63 12.36 46.44 12.59Q46.24 12.82 46.05 13.06Q45.85 13.30 45.72 13.47L45.72 13.47Q45.46 13.83 45.26 14.11Q45.07 14.39 44.89 14.64Q44.72 14.90 44.55 15.15Q44.38 15.41 44.16 15.71L44.16 15.71Q43.71 15.57 43.52 15.29Q43.33 15.01 43.33 14.60ZM74.69 13.01L74.69 13.01Q74.37 14.03 74.05 14.87Q73.72 15.71 73.36 16.41Q73.00 17.12 72.58 17.72Q72.16 18.31 71.65 18.84L71.65 18.84Q71.01 19.52 70.32 19.87Q69.64 20.23 68.95 20.23L68.95 20.23Q68.60 20.23 68.26 20.15Q67.91 20.08 67.61 19.94Q67.31 19.81 67.08 19.64Q66.85 19.46 66.75 19.26L66.75 19.26Q66.75 19.10 66.95 18.97L66.95 18.97Q67.12 19.12 67.23 19.21Q67.34 19.29 67.45 19.35Q67.55 19.40 67.67 19.42Q67.79 19.43 67.94 19.43L67.94 19.43Q68.74 19.43 69.50 18.96Q70.27 18.49 70.95 17.63Q71.62 16.77 72.18 15.55Q72.74 14.32 73.14 12.81L73.14 12.81Q72.95 13.09 72.69 13.50Q72.42 13.90 72.10 14.30Q71.78 14.70 71.44 15.02Q71.09 15.34 70.77 15.46L70.77 15.46Q70.55 15.44 70.30 15.37Q70.06 15.29 69.84 15.15Q69.62 15.01 69.45 14.81Q69.29 14.62 69.23 14.36L69.23 14.36Q69.23 13.96 69.26 13.71Q69.29 13.47 69.36 13.17L69.36 13.17Q69.48 12.64 69.73 11.97Q69.97 11.30 70.30 10.65Q70.63 10.00 71.03 9.43Q71.43 8.86 71.86 8.54L71.86 8.54Q71.97 8.54 72.14 8.56Q72.31 8.58 72.49 8.64Q72.67 8.69 72.84 8.77Q73.01 8.85 73.14 8.97L73.14 8.97Q72.98 9.11 72.46 9.91Q71.95 10.71 71.32 12.21L71.32 12.21Q71.25 12.36 71.15 12.66Q71.05 12.95 70.96 13.27Q70.87 13.59 70.80 13.90Q70.73 14.21 70.73 14.39L70.73 14.39Q70.73 14.50 70.76 14.56Q70.80 14.62 70.83 14.64L70.83 14.64Q71.08 14.60 71.50 14.23Q71.92 13.86 72.45 13.08L72.45 13.08Q72.79 12.57 73.07 12.07Q73.35 11.58 73.62 11.07Q73.89 10.57 74.19 10.04Q74.48 9.51 74.82 8.95L74.82 8.95Q75.00 8.95 75.21 8.99Q75.42 9.03 75.61 9.09Q75.81 9.16 75.96 9.23Q76.10 9.31 76.17 9.39L76.17 9.39Q75.74 10.32 75.36 11.20Q74.98 12.08 74.69 13.01ZM84.92 15.67L84.92 15.67Q84.13 15.58 83.65 14.97Q83.17 14.35 83.17 13.40L83.17 13.40Q83.17 12.84 83.34 12.24Q83.51 11.63 83.82 11.07Q84.13 10.50 84.55 10.00Q84.97 9.49 85.46 9.13L85.46 9.13Q86.23 8.55 86.90 8.55L86.90 8.55Q87.35 8.79 87.78 9.55L87.78 9.55Q87.85 9.55 87.91 9.54Q87.96 9.53 88.03 9.53L88.03 9.53Q88.77 9.53 88.77 10.85L88.77 10.85Q88.77 11.73 88.49 12.52Q88.20 13.31 87.69 13.96Q87.18 14.60 86.47 15.04Q85.76 15.48 84.92 15.67ZM85.64 11.26L85.64 11.26Q85.40 11.58 85.19 11.96Q84.98 12.33 84.83 12.72Q84.67 13.10 84.59 13.46Q84.50 13.82 84.50 14.10L84.50 14.10Q84.50 14.43 84.62 14.74Q84.73 15.05 84.87 15.09L84.87 15.09Q85.50 14.95 86.02 14.57Q86.55 14.18 86.93 13.61Q87.32 13.03 87.54 12.31Q87.75 11.58 87.75 10.75L87.75 10.75Q87.75 10.39 87.71 10.18Q87.67 9.97 87.57 9.81L87.57 9.81Q86.95 10.00 86.47 10.40Q85.99 10.81 85.64 11.26ZM100.25 14.87L100.25 14.87Q99.99 14.64 99.90 14.31Q99.81 13.97 99.81 13.73L99.81 13.73Q99.81 13.44 99.88 13.23L99.88 13.23Q99.82 13.23 99.62 13.45Q99.43 13.68 99.20 13.99Q98.97 14.29 98.74 14.59Q98.52 14.88 98.41 15.02L98.41 15.02Q98.22 15.22 98.06 15.33Q97.90 15.44 97.80 15.46L97.80 15.46Q97.58 15.44 97.34 15.37Q97.09 15.29 96.87 15.15Q96.66 15.01 96.50 14.81Q96.33 14.62 96.28 14.36L96.28 14.36Q96.28 13.97 96.30 13.72Q96.32 13.47 96.39 13.17L96.39 13.17Q96.52 12.64 96.76 11.97Q97.01 11.30 97.33 10.65Q97.65 10.00 98.05 9.43Q98.45 8.86 98.90 8.54L98.90 8.54Q99.02 8.54 99.19 8.56Q99.36 8.58 99.53 8.64Q99.71 8.69 99.87 8.77Q100.03 8.85 100.14 8.97L100.14 8.97Q100.02 9.11 99.51 9.91Q98.99 10.71 98.36 12.21L98.36 12.21Q98.29 12.36 98.20 12.66Q98.10 12.95 98.00 13.27Q97.90 13.59 97.84 13.90Q97.78 14.21 97.78 14.39L97.78 14.39Q97.78 14.50 97.81 14.56Q97.85 14.62 97.87 14.64L97.87 14.64Q98.08 14.56 98.41 14.18Q98.73 13.80 99.30 13.02L99.30 13.02Q99.44 12.82 99.63 12.57Q99.82 12.32 100.02 12.03Q100.21 11.75 100.39 11.44Q100.56 11.13 100.67 10.82L100.67 10.82Q100.73 10.65 100.82 10.42Q100.91 10.19 101.05 9.94Q101.18 9.69 101.35 9.43Q101.53 9.17 101.77 8.95L101.77 8.95Q101.95 8.95 102.16 8.99Q102.37 9.03 102.56 9.09Q102.75 9.16 102.89 9.23Q103.03 9.31 103.10 9.39L103.10 9.39Q102.84 10.01 102.54 10.61Q102.23 11.21 101.96 11.79Q101.70 12.38 101.51 12.95Q101.33 13.52 101.33 14.07L101.33 14.07Q101.33 14.36 101.38 14.58Q101.43 14.80 101.49 14.95Q101.54 15.09 101.59 15.19Q101.64 15.29 101.64 15.36L101.64 15.36Q101.64 15.37 101.61 15.40L101.61 15.40Q101.60 15.41 101.58 15.41L101.58 15.41Q101.49 15.41 101.33 15.37Q101.18 15.33 100.99 15.25Q100.80 15.18 100.61 15.08Q100.42 14.98 100.25 14.87ZM110.03 14.90L110.03 14.90Q110.10 14.49 110.27 13.82Q110.45 13.16 110.68 12.41Q110.92 11.66 111.19 10.91Q111.45 10.15 111.71 9.55L111.71 9.55Q111.89 9.11 112.03 8.87Q112.17 8.62 112.34 8.46L112.34 8.46Q112.53 8.48 112.74 8.55Q112.95 8.62 113.15 8.72Q113.34 8.82 113.50 8.93Q113.65 9.03 113.74 9.13L113.74 9.13Q113.36 9.58 113.07 10.15Q112.78 10.72 112.49 11.62L112.49 11.62Q113.25 10.95 113.83 10.33Q114.41 9.72 114.91 8.96L114.91 8.96Q115.00 8.89 115.21 8.89L115.21 8.89Q115.40 8.89 115.58 8.95Q115.77 9.02 115.84 9.13L115.84 9.13Q115.58 9.80 115.58 10.46L115.58 10.46Q115.58 11.07 115.77 11.38L115.77 11.38Q115.75 11.47 115.58 11.70Q115.40 11.94 115.19 12.15L115.19 12.15Q114.81 11.96 114.52 11.61Q114.23 11.27 114.09 10.86L114.09 10.86Q113.43 11.33 112.97 11.77Q112.50 12.21 112.18 12.75Q111.85 13.29 111.62 13.99Q111.38 14.69 111.17 15.65L111.17 15.65Q111.05 15.64 110.87 15.56Q110.70 15.48 110.52 15.37Q110.35 15.26 110.21 15.13Q110.07 15.01 110.03 14.90ZM134.96 9.81L134.16 9.81Q134.09 9.73 134.04 9.46Q133.98 9.18 133.98 8.99L133.98 8.99Q134.34 9.02 134.68 9.04Q135.02 9.06 135.30 9.07L135.30 9.07Q135.51 8.65 135.75 8.24Q136.00 7.83 136.23 7.48Q136.46 7.14 136.66 6.90Q136.86 6.66 136.98 6.59L136.98 6.59Q137.12 6.59 137.33 6.64Q137.55 6.69 137.77 6.77Q138.00 6.85 138.18 6.93Q138.36 7.01 138.43 7.10L138.43 7.10Q138.01 7.63 137.71 8.09Q137.41 8.54 137.06 9.13L137.06 9.13Q137.34 9.13 137.63 9.11Q137.91 9.10 138.21 9.07L138.21 9.07Q138.28 9.14 138.32 9.25Q138.36 9.35 138.36 9.46L138.36 9.46Q137.68 9.72 136.70 9.74L136.70 9.74Q136.35 10.42 136.07 11.08Q135.80 11.75 135.61 12.36Q135.42 12.98 135.32 13.52Q135.21 14.07 135.21 14.50L135.21 14.50Q135.21 15.12 135.67 15.19L135.67 15.19Q136.09 15.13 136.47 14.98Q136.85 14.83 137.14 14.59L137.14 14.59Q137.23 14.71 137.24 14.80L137.24 14.80Q137.16 14.92 136.96 15.09Q136.75 15.26 136.51 15.42Q136.28 15.58 136.05 15.69Q135.83 15.81 135.72 15.82L135.72 15.82Q135.37 15.81 135.02 15.67Q134.67 15.53 134.38 15.32Q134.09 15.11 133.91 14.85Q133.73 14.59 133.73 14.34L133.73 14.34Q133.73 14 133.82 13.49Q133.91 12.98 134.08 12.38Q134.25 11.77 134.47 11.12Q134.69 10.46 134.96 9.81L134.96 9.81ZM144.93 14.90L144.93 14.90Q145.00 14.49 145.17 13.82Q145.35 13.16 145.59 12.41Q145.82 11.66 146.09 10.91Q146.36 10.15 146.61 9.55L146.61 9.55Q146.79 9.11 146.93 8.87Q147.07 8.62 147.24 8.46L147.24 8.46Q147.43 8.48 147.64 8.55Q147.85 8.62 148.05 8.72Q148.25 8.82 148.40 8.93Q148.55 9.03 148.64 9.13L148.64 9.13Q148.26 9.58 147.97 10.15Q147.69 10.72 147.39 11.62L147.39 11.62Q148.15 10.95 148.73 10.33Q149.31 9.72 149.81 8.96L149.81 8.96Q149.90 8.89 150.11 8.89L150.11 8.89Q150.30 8.89 150.49 8.95Q150.67 9.02 150.74 9.13L150.74 9.13Q150.49 9.80 150.49 10.46L150.49 10.46Q150.49 11.07 150.67 11.38L150.67 11.38Q150.65 11.47 150.48 11.70Q150.30 11.94 150.09 12.15L150.09 12.15Q149.72 11.96 149.42 11.61Q149.13 11.27 148.99 10.86L148.99 10.86Q148.33 11.33 147.87 11.77Q147.41 12.21 147.08 12.75Q146.75 13.29 146.52 13.99Q146.29 14.69 146.08 15.65L146.08 15.65Q145.95 15.64 145.78 15.56Q145.60 15.48 145.43 15.37Q145.25 15.26 145.11 15.13Q144.97 15.01 144.93 14.90ZM162.92 9.38L162.92 9.38Q162.86 10.25 162.61 10.87Q162.36 11.49 161.89 11.96Q161.42 12.43 160.75 12.81Q160.08 13.19 159.18 13.54L159.18 13.54Q159.18 13.62 159.17 13.71Q159.17 13.80 159.17 13.90L159.17 13.90Q159.17 14.08 159.19 14.28Q159.22 14.48 159.29 14.64Q159.36 14.81 159.49 14.92Q159.61 15.02 159.81 15.02L159.81 15.02Q160.19 15.02 160.55 14.85Q160.92 14.69 161.25 14.44Q161.57 14.20 161.86 13.91Q162.15 13.62 162.37 13.38L162.37 13.38Q162.51 13.51 162.61 13.62L162.61 13.62Q161.98 14.46 161.23 15.02Q160.48 15.57 159.81 15.72L159.81 15.72Q158.84 15.61 158.31 15.02Q157.77 14.42 157.77 13.58L157.77 13.58Q157.77 13.01 157.93 12.41Q158.09 11.82 158.38 11.26Q158.66 10.71 159.05 10.22Q159.43 9.73 159.87 9.37Q160.31 9.00 160.78 8.79Q161.25 8.58 161.71 8.58L161.71 8.58Q162.36 8.67 162.92 9.38ZM161.95 9.84L161.95 9.84Q161.57 9.90 161.17 10.15Q160.76 10.40 160.41 10.82Q160.05 11.24 159.75 11.80Q159.46 12.36 159.29 13.01L159.29 13.01Q160.41 12.45 161.15 11.63Q161.90 10.81 161.95 9.84ZM175.39 9.52L175.39 9.52Q175.53 9.52 175.72 9.57Q175.91 9.62 176.06 9.70Q176.22 9.77 176.32 9.86Q176.43 9.94 176.43 10.01L176.43 10.01Q176.15 10.60 175.91 11.19Q175.67 11.79 175.50 12.33Q175.34 12.88 175.25 13.36Q175.15 13.83 175.15 14.18L175.15 14.18Q175.15 14.57 175.24 14.83Q175.32 15.09 175.52 15.20L175.52 15.20Q175.35 15.32 175.08 15.39Q174.82 15.46 174.61 15.46L174.61 15.46Q173.85 15.46 173.85 14.42L173.85 14.42Q173.85 13.62 174.38 12.24L174.38 12.24Q174.10 12.88 173.74 13.45Q173.38 14.01 173.00 14.45Q172.62 14.88 172.24 15.15Q171.85 15.43 171.53 15.48L171.53 15.48Q171.01 15.46 170.69 14.99Q170.37 14.52 170.37 13.79L170.37 13.79Q170.37 13.01 170.70 12.14Q171.04 11.27 171.56 10.53Q172.09 9.79 172.70 9.29Q173.32 8.79 173.89 8.76L173.89 8.76Q174.03 8.81 174.21 8.93Q174.38 9.06 174.55 9.23Q174.71 9.39 174.82 9.57Q174.93 9.74 174.94 9.87L174.94 9.87Q174.38 9.95 173.79 10.42Q173.19 10.88 172.71 11.53Q172.23 12.18 171.92 12.92Q171.61 13.66 171.61 14.31L171.61 14.31Q171.61 14.57 171.81 14.64L171.81 14.64Q172.21 14.56 172.75 13.95Q173.28 13.34 174.03 12.07L174.03 12.07Q174.17 11.82 174.35 11.51Q174.52 11.20 174.71 10.86Q174.89 10.53 175.06 10.18Q175.24 9.84 175.39 9.52ZM185.53 9.81L184.73 9.81Q184.66 9.73 184.60 9.46Q184.55 9.18 184.55 8.99L184.55 8.99Q184.91 9.02 185.25 9.04Q185.58 9.06 185.86 9.07L185.86 9.07Q186.07 8.65 186.32 8.24Q186.56 7.83 186.80 7.48Q187.03 7.14 187.23 6.90Q187.43 6.66 187.54 6.59L187.54 6.59Q187.68 6.59 187.90 6.64Q188.12 6.69 188.34 6.77Q188.57 6.85 188.75 6.93Q188.93 7.01 189.00 7.10L189.00 7.10Q188.58 7.63 188.28 8.09Q187.98 8.54 187.63 9.13L187.63 9.13Q187.91 9.13 188.20 9.11Q188.48 9.10 188.78 9.07L188.78 9.07Q188.85 9.14 188.89 9.25Q188.93 9.35 188.93 9.46L188.93 9.46Q188.24 9.72 187.26 9.74L187.26 9.74Q186.91 10.42 186.64 11.08Q186.37 11.75 186.18 12.36Q185.99 12.98 185.89 13.52Q185.78 14.07 185.78 14.50L185.78 14.50Q185.78 15.12 186.24 15.19L186.24 15.19Q186.66 15.13 187.04 14.98Q187.42 14.83 187.71 14.59L187.71 14.59Q187.80 14.71 187.81 14.80L187.81 14.80Q187.73 14.92 187.52 15.09Q187.32 15.26 187.08 15.42Q186.84 15.58 186.62 15.69Q186.40 15.81 186.28 15.82L186.28 15.82Q185.93 15.81 185.58 15.67Q185.23 15.53 184.95 15.32Q184.66 15.11 184.48 14.85Q184.30 14.59 184.30 14.34L184.30 14.34Q184.30 14 184.39 13.49Q184.48 12.98 184.65 12.38Q184.81 11.77 185.04 11.12Q185.26 10.46 185.53 9.81L185.53 9.81ZM203.92 10.88L203.92 10.88Q203.70 10.89 203.38 11.16Q203.06 11.44 202.69 11.87Q202.31 12.29 201.92 12.81Q201.52 13.33 201.15 13.84Q200.77 14.35 200.45 14.80Q200.13 15.25 199.91 15.51L199.91 15.51Q199.60 15.39 199.37 15.14Q199.15 14.90 199.05 14.53L199.05 14.53Q199.12 14.10 199.25 13.63Q199.37 13.16 199.58 12.66Q199.78 12.15 200.08 11.60Q200.38 11.05 200.82 10.43L200.82 10.43Q200.61 10.44 200.24 10.73Q199.88 11.02 199.46 11.47Q199.04 11.93 198.59 12.50Q198.14 13.06 197.75 13.61L197.75 13.61Q197.23 14.34 196.89 14.88Q196.55 15.43 196.39 15.53L196.39 15.53Q196.03 15.26 195.89 14.95Q195.75 14.64 195.68 14.27L195.68 14.27Q195.69 13.93 195.78 13.43Q195.87 12.92 196.04 12.39L196.04 12.39Q196.36 11.37 196.88 10.36Q197.39 9.35 197.86 8.51L197.86 8.51Q198.25 8.60 198.57 8.78Q198.88 8.96 199.23 9.31L199.23 9.31Q199.09 9.74 198.80 10.23Q198.51 10.71 198.18 11.24Q197.86 11.77 197.60 12.33Q197.33 12.89 197.25 13.47L197.25 13.47Q197.64 12.91 198.18 12.18Q198.72 11.45 199.28 10.81Q199.85 10.16 200.41 9.72Q200.97 9.27 201.42 9.27L201.42 9.27Q201.59 9.27 201.78 9.32Q201.98 9.38 202.15 9.46Q202.31 9.55 202.43 9.63Q202.54 9.70 202.55 9.74L202.55 9.74Q202.48 10.02 202.22 10.51Q201.96 10.99 201.67 11.52Q201.38 12.05 201.12 12.55Q200.87 13.05 200.83 13.34L200.83 13.34Q201.52 12.40 202.12 11.64Q202.72 10.88 203.25 10.33Q203.78 9.79 204.24 9.49Q204.69 9.20 205.10 9.20L205.10 9.20Q205.38 9.20 205.63 9.34Q205.87 9.49 205.97 9.77L205.97 9.77Q205.84 10.19 205.56 10.78Q205.27 11.37 204.97 12.02Q204.68 12.67 204.45 13.30Q204.22 13.93 204.22 14.43L204.22 14.43Q204.22 14.73 204.30 14.82Q204.39 14.91 204.54 14.91L204.54 14.91Q204.71 14.91 204.86 14.85Q205.00 14.78 205.07 14.78L205.07 14.78Q205.16 14.84 205.17 14.92Q205.18 15.01 205.18 15.08L205.18 15.08Q204.90 15.30 204.61 15.45Q204.32 15.60 203.95 15.60L203.95 15.60Q203.62 15.60 203.40 15.48Q203.18 15.37 203.04 15.18Q202.90 14.98 202.85 14.73Q202.79 14.48 202.79 14.18L202.79 14.18Q202.79 13.71 202.92 13.24Q203.04 12.77 203.22 12.34Q203.39 11.91 203.59 11.54Q203.78 11.17 203.92 10.88ZM218.55 9.38L218.55 9.38Q218.50 10.25 218.25 10.87Q217.99 11.49 217.53 11.96Q217.06 12.43 216.38 12.81Q215.71 13.19 214.82 13.54L214.82 13.54Q214.82 13.62 214.81 13.71Q214.80 13.80 214.80 13.90L214.80 13.90Q214.80 14.08 214.83 14.28Q214.86 14.48 214.93 14.64Q215.00 14.81 215.12 14.92Q215.25 15.02 215.45 15.02L215.45 15.02Q215.82 15.02 216.19 14.85Q216.55 14.69 216.88 14.44Q217.21 14.20 217.50 13.91Q217.78 13.62 218.01 13.38L218.01 13.38Q218.15 13.51 218.25 13.62L218.25 13.62Q217.62 14.46 216.87 15.02Q216.12 15.57 215.45 15.72L215.45 15.72Q214.48 15.61 213.94 15.02Q213.40 14.42 213.40 13.58L213.40 13.58Q213.40 13.01 213.56 12.41Q213.72 11.82 214.01 11.26Q214.30 10.71 214.68 10.22Q215.07 9.73 215.51 9.37Q215.95 9.00 216.42 8.79Q216.89 8.58 217.35 8.58L217.35 8.58Q217.99 8.67 218.55 9.38ZM217.59 9.84L217.59 9.84Q217.21 9.90 216.80 10.15Q216.40 10.40 216.04 10.82Q215.68 11.24 215.39 11.80Q215.10 12.36 214.93 13.01L214.93 13.01Q216.05 12.45 216.79 11.63Q217.53 10.81 217.59 9.84ZM228.47 8.39L228.47 8.39Q228.83 8.50 229.15 8.88Q229.47 9.27 229.63 9.73L229.63 9.73Q229.47 10.11 229.15 10.64Q228.83 11.17 228.51 11.72Q228.19 12.28 227.93 12.78Q227.67 13.27 227.63 13.59L227.63 13.59Q227.85 13.36 228.12 13.04Q228.40 12.73 228.66 12.41Q228.91 12.10 229.14 11.84Q229.36 11.58 229.49 11.45L229.49 11.45Q229.75 11.17 230.12 10.80Q230.48 10.43 230.88 10.10Q231.28 9.77 231.69 9.54Q232.09 9.31 232.43 9.31L232.43 9.31Q232.79 9.31 233.04 9.55Q233.28 9.80 233.42 10.07L233.42 10.07Q233.42 10.09 233.32 10.14Q233.21 10.19 233.02 10.42L233.02 10.42Q232.82 10.67 232.58 11.11Q232.33 11.55 232.10 12.06Q231.87 12.57 231.71 13.10Q231.56 13.64 231.56 14.07L231.56 14.07Q231.56 14.42 231.65 14.52Q231.74 14.62 231.91 14.62L231.91 14.62Q232.06 14.62 232.23 14.55Q232.40 14.48 232.50 14.48L232.50 14.48Q232.55 14.50 232.59 14.60Q232.62 14.69 232.62 14.76L232.62 14.76Q232.51 14.85 232.36 14.95Q232.20 15.05 232.04 15.13Q231.87 15.22 231.71 15.27Q231.55 15.33 231.42 15.33L231.42 15.33Q231.01 15.33 230.76 15.21Q230.50 15.09 230.35 14.90Q230.20 14.70 230.15 14.43Q230.09 14.15 230.09 13.85L230.09 13.85Q230.09 13.68 230.12 13.47Q230.15 13.26 230.23 12.97Q230.31 12.68 230.47 12.29Q230.62 11.89 230.86 11.33L230.86 11.33Q230.83 11.33 230.48 11.52Q230.13 11.72 229.73 12.12L229.73 12.12Q229.07 12.75 228.54 13.37Q228.02 13.99 227.47 14.74L227.47 14.74Q227.16 15.18 226.93 15.48Q226.70 15.78 226.53 15.88L226.53 15.88Q226.24 15.71 226.10 15.41Q225.96 15.11 225.89 14.78L225.89 14.78Q225.89 14.52 225.97 14.11Q226.04 13.71 226.18 13.21Q226.31 12.71 226.51 12.17Q226.70 11.62 226.94 11.07L226.94 11.07Q227.47 9.84 227.91 9.14Q228.35 8.44 228.47 8.39ZM242.38 9.81L241.58 9.81Q241.51 9.73 241.46 9.46Q241.40 9.18 241.40 8.99L241.40 8.99Q241.77 9.02 242.10 9.04Q242.44 9.06 242.72 9.07L242.72 9.07Q242.93 8.65 243.17 8.24Q243.42 7.83 243.65 7.48Q243.88 7.14 244.08 6.90Q244.29 6.66 244.40 6.59L244.40 6.59Q244.54 6.59 244.76 6.64Q244.97 6.69 245.20 6.77Q245.42 6.85 245.60 6.93Q245.78 7.01 245.85 7.10L245.85 7.10Q245.43 7.63 245.13 8.09Q244.83 8.54 244.48 9.13L244.48 9.13Q244.76 9.13 245.05 9.11Q245.34 9.10 245.63 9.07L245.63 9.07Q245.70 9.14 245.74 9.25Q245.78 9.35 245.78 9.46L245.78 9.46Q245.10 9.72 244.12 9.74L244.12 9.74Q243.77 10.42 243.50 11.08Q243.22 11.75 243.03 12.36Q242.84 12.98 242.74 13.52Q242.63 14.07 242.63 14.50L242.63 14.50Q242.63 15.12 243.10 15.19L243.10 15.19Q243.52 15.13 243.89 14.98Q244.27 14.83 244.57 14.59L244.57 14.59Q244.65 14.71 244.66 14.80L244.66 14.80Q244.58 14.92 244.38 15.09Q244.17 15.26 243.94 15.42Q243.70 15.58 243.47 15.69Q243.25 15.81 243.14 15.82L243.14 15.82Q242.79 15.81 242.44 15.67Q242.09 15.53 241.80 15.32Q241.51 15.11 241.33 14.85Q241.15 14.59 241.15 14.34L241.15 14.34Q241.15 14 241.24 13.49Q241.33 12.98 241.50 12.38Q241.67 11.77 241.89 11.12Q242.12 10.46 242.38 9.81L242.38 9.81ZM263.00 14.94L263.00 14.94Q263.00 14.45 263.10 13.78Q263.20 13.12 263.39 12.36Q263.58 11.61 263.84 10.78Q264.10 9.95 264.42 9.13L264.42 9.13Q264.70 8.39 265.07 7.63Q265.44 6.87 265.87 6.15Q266.31 5.42 266.78 4.76Q267.25 4.10 267.72 3.56L267.72 3.56Q267.95 3.56 268.21 3.61Q268.46 3.67 268.71 3.76Q268.95 3.85 269.16 3.98Q269.36 4.10 269.49 4.23L269.49 4.23Q268.44 5.31 267.60 6.40Q266.76 7.50 266.27 8.47L266.27 8.47Q266 9.00 265.78 9.46Q265.57 9.93 265.38 10.38Q265.20 10.84 265.06 11.29Q264.91 11.75 264.78 12.25L264.78 12.25Q267.47 8.82 268.77 8.82L268.77 8.82Q269.14 8.82 269.56 9.06Q269.98 9.30 270.30 9.70L270.30 9.70Q269.86 10.18 269.40 10.85Q268.94 11.52 268.56 12.20Q268.17 12.88 267.93 13.46Q267.68 14.04 267.68 14.32L267.68 14.32Q267.68 14.46 267.72 14.51Q267.76 14.56 267.90 14.56L267.90 14.56Q268.11 14.56 268.24 14.50Q268.37 14.45 268.39 14.45L268.39 14.45Q268.46 14.56 268.48 14.60Q268.49 14.64 268.49 14.67L268.49 14.67Q268.49 14.73 268.32 14.83Q268.16 14.94 267.93 15.04Q267.69 15.15 267.47 15.23Q267.25 15.32 267.13 15.32L267.13 15.32Q266.99 15.32 266.85 15.24Q266.71 15.16 266.61 15.04Q266.50 14.91 266.44 14.76Q266.38 14.60 266.38 14.43L266.38 14.43Q266.38 14.22 266.50 13.81Q266.62 13.40 266.83 12.85Q267.04 12.29 267.33 11.63Q267.62 10.98 267.96 10.29L267.96 10.29Q267.96 10.23 267.90 10.23L267.90 10.23Q267.86 10.23 267.69 10.35Q267.51 10.46 267.36 10.57L267.36 10.57Q266.85 10.95 266.34 11.50Q265.83 12.05 265.35 12.71Q264.87 13.37 264.44 14.11Q264.01 14.84 263.70 15.58L263.70 15.58Q263.66 15.68 263.58 15.76Q263.49 15.85 263.44 15.85L263.44 15.85Q263.40 15.85 263.32 15.75Q263.24 15.65 263.18 15.51Q263.12 15.36 263.06 15.20Q263.00 15.05 263.00 14.94ZM277.27 14.24L277.27 14.24Q277.27 14.11 277.29 13.92Q277.31 13.73 277.37 13.42Q277.42 13.10 277.52 12.66Q277.61 12.21 277.75 11.58L277.75 11.58Q277.77 11.44 277.87 11.13Q277.97 10.82 278.13 10.48Q278.29 10.14 278.52 9.81Q278.75 9.49 279.08 9.34L279.08 9.34Q279.31 9.39 279.71 9.63Q280.10 9.86 280.38 10.26L280.38 10.26Q280.06 10.63 279.84 10.99Q279.62 11.35 279.45 11.75Q279.27 12.14 279.13 12.56Q278.98 12.98 278.80 13.44L278.80 13.44Q278.64 13.83 278.52 14.25Q278.39 14.66 278.38 14.97L278.38 14.97Q278.38 15.22 278.37 15.32Q278.36 15.43 278.29 15.43L278.29 15.43Q278.24 15.43 278.07 15.36Q277.90 15.29 277.73 15.14Q277.55 14.99 277.41 14.77Q277.27 14.55 277.27 14.24ZM279.94 8.16L279.94 8.16Q279.94 8.08 279.99 7.91L279.99 7.91Q279.92 7.84 279.87 7.70Q279.82 7.56 279.82 7.45L279.82 7.45Q279.82 7.32 279.85 7.11Q279.89 6.89 279.94 6.64Q280 6.38 280.08 6.11Q280.17 5.84 280.25 5.61L280.25 5.61Q280.42 5.61 280.67 5.71Q280.91 5.80 281.16 5.94Q281.41 6.09 281.62 6.27Q281.83 6.44 281.95 6.59L281.95 6.59Q281.79 6.75 281.54 7.02Q281.29 7.29 281.05 7.59Q280.81 7.90 280.62 8.16Q280.42 8.43 280.36 8.54L280.36 8.54Q280.20 8.51 280.07 8.39Q279.94 8.27 279.94 8.16ZM292.39 9.60L292.39 9.60Q292.38 9.87 292.30 10.16Q292.22 10.44 292.11 10.68Q292.00 10.91 291.87 11.06Q291.75 11.21 291.63 11.21L291.63 11.21Q291.48 11.20 291.45 11.00L291.45 11.00Q291.45 10.96 291.49 10.87Q291.52 10.78 291.56 10.67Q291.61 10.56 291.64 10.44Q291.68 10.33 291.68 10.25L291.68 10.25Q291.68 10.05 291.58 9.92Q291.49 9.79 291.34 9.79L291.34 9.79Q290.78 9.79 290.49 10.49Q290.19 11.19 290.19 12.54L290.19 12.54Q290.19 12.68 290.21 12.71L290.21 12.71Q290.50 12.70 290.73 12.69Q290.96 12.68 291.19 12.68L291.19 12.68Q291.20 12.71 291.20 12.80L291.20 12.80Q291.20 12.92 291.14 12.98L291.14 12.98Q290.82 13.05 290.63 13.10Q290.44 13.15 290.35 13.19Q290.25 13.23 290.23 13.28Q290.21 13.33 290.21 13.41L290.21 13.41Q290.21 13.52 290.21 13.64Q290.22 13.75 290.22 13.92L290.22 13.92Q290.22 15.09 289.58 15.81Q288.95 16.52 287.81 16.63L287.81 16.63Q287.62 16.62 287.41 16.52Q287.20 16.42 287.01 16.27Q286.82 16.11 286.68 15.93Q286.54 15.74 286.48 15.54L286.48 15.54Q286.48 15.01 286.71 14.53Q286.93 14.04 287.31 13.67Q287.70 13.30 288.23 13.07Q288.75 12.84 289.37 12.80L289.37 12.80Q289.37 12.45 289.30 12.11Q289.23 11.77 289.15 11.46Q289.07 11.14 289.00 10.84Q288.93 10.54 288.93 10.25L288.93 10.25Q288.93 9.87 289.09 9.50Q289.24 9.13 289.49 8.81Q289.74 8.50 290.08 8.27Q290.42 8.05 290.78 7.97L290.78 7.97Q290.93 8.01 291.19 8.21Q291.45 8.41 291.70 8.67Q291.96 8.92 292.15 9.18Q292.35 9.44 292.39 9.60ZM287.77 15.99L287.77 15.99Q288.11 15.85 288.41 15.58Q288.71 15.32 288.93 14.98Q289.16 14.64 289.29 14.27Q289.42 13.89 289.42 13.52L289.42 13.52Q289.14 13.57 288.81 13.78Q288.47 14 288.18 14.30Q287.88 14.60 287.69 14.92Q287.49 15.25 287.49 15.48L287.49 15.48Q287.49 15.79 287.77 15.99ZM301.03 9.81L300.23 9.81Q300.16 9.73 300.10 9.46Q300.05 9.18 300.05 8.99L300.05 8.99Q300.41 9.02 300.75 9.04Q301.08 9.06 301.36 9.07L301.36 9.07Q301.57 8.65 301.82 8.24Q302.06 7.83 302.30 7.48Q302.53 7.14 302.73 6.90Q302.93 6.66 303.04 6.59L303.04 6.59Q303.18 6.59 303.40 6.64Q303.62 6.69 303.84 6.77Q304.07 6.85 304.25 6.93Q304.43 7.01 304.50 7.10L304.50 7.10Q304.08 7.63 303.78 8.09Q303.48 8.54 303.13 9.13L303.13 9.13Q303.41 9.13 303.69 9.11Q303.98 9.10 304.28 9.07L304.28 9.07Q304.35 9.14 304.39 9.25Q304.43 9.35 304.43 9.46L304.43 9.46Q303.74 9.72 302.76 9.74L302.76 9.74Q302.41 10.42 302.14 11.08Q301.87 11.75 301.68 12.36Q301.49 12.98 301.38 13.52Q301.28 14.07 301.28 14.50L301.28 14.50Q301.28 15.12 301.74 15.19L301.74 15.19Q302.16 15.13 302.54 14.98Q302.92 14.83 303.21 14.59L303.21 14.59Q303.30 14.71 303.31 14.80L303.31 14.80Q303.23 14.92 303.02 15.09Q302.82 15.26 302.58 15.42Q302.34 15.58 302.12 15.69Q301.90 15.81 301.78 15.82L301.78 15.82Q301.43 15.81 301.08 15.67Q300.73 15.53 300.45 15.32Q300.16 15.11 299.98 14.85Q299.80 14.59 299.80 14.34L299.80 14.34Q299.80 14 299.89 13.49Q299.98 12.98 300.15 12.38Q300.31 11.77 300.54 11.12Q300.76 10.46 301.03 9.81L301.03 9.81ZM312.98 15.67L312.98 15.67Q312.19 15.58 311.71 14.97Q311.23 14.35 311.23 13.40L311.23 13.40Q311.23 12.84 311.40 12.24Q311.57 11.63 311.88 11.07Q312.19 10.50 312.61 10.00Q313.03 9.49 313.52 9.13L313.52 9.13Q314.29 8.55 314.96 8.55L314.96 8.55Q315.41 8.79 315.84 9.55L315.84 9.55Q315.91 9.55 315.97 9.54Q316.02 9.53 316.09 9.53L316.09 9.53Q316.83 9.53 316.83 10.85L316.83 10.85Q316.83 11.73 316.55 12.52Q316.26 13.31 315.75 13.96Q315.24 14.60 314.53 15.04Q313.82 15.48 312.98 15.67ZM313.70 11.26L313.70 11.26Q313.46 11.58 313.25 11.96Q313.04 12.33 312.89 12.72Q312.73 13.10 312.65 13.46Q312.56 13.82 312.56 14.10L312.56 14.10Q312.56 14.43 312.68 14.74Q312.79 15.05 312.93 15.09L312.93 15.09Q313.56 14.95 314.08 14.57Q314.61 14.18 314.99 13.61Q315.38 13.03 315.59 12.31Q315.81 11.58 315.81 10.75L315.81 10.75Q315.81 10.39 315.77 10.18Q315.73 9.97 315.63 9.81L315.63 9.81Q315.01 10.00 314.53 10.40Q314.05 10.81 313.70 11.26ZM324.17 14.90L324.17 14.90Q324.24 14.49 324.41 13.82Q324.59 13.16 324.83 12.41Q325.07 11.66 325.33 10.91Q325.60 10.15 325.85 9.55L325.85 9.55Q326.03 9.11 326.17 8.87Q326.31 8.62 326.48 8.46L326.48 8.46Q326.68 8.48 326.89 8.55Q327.10 8.62 327.29 8.72Q327.49 8.82 327.64 8.93Q327.80 9.03 327.88 9.13L327.88 9.13Q327.50 9.58 327.21 10.15Q326.93 10.72 326.63 11.62L326.63 11.62Q327.39 10.95 327.97 10.33Q328.55 9.72 329.06 8.96L329.06 8.96Q329.14 8.89 329.35 8.89L329.35 8.89Q329.55 8.89 329.73 8.95Q329.91 9.02 329.98 9.13L329.98 9.13Q329.73 9.80 329.73 10.46L329.73 10.46Q329.73 11.07 329.91 11.38L329.91 11.38Q329.90 11.47 329.72 11.70Q329.55 11.94 329.34 12.15L329.34 12.15Q328.96 11.96 328.66 11.61Q328.37 11.27 328.23 10.86L328.23 10.86Q327.57 11.33 327.11 11.77Q326.65 12.21 326.32 12.75Q325.99 13.29 325.76 13.99Q325.53 14.69 325.32 15.65L325.32 15.65Q325.19 15.64 325.02 15.56Q324.84 15.48 324.67 15.37Q324.49 15.26 324.35 15.13Q324.21 15.01 324.17 14.90ZM342.41 13.01L342.41 13.01Q342.09 14.03 341.77 14.87Q341.45 15.71 341.08 16.41Q340.72 17.12 340.30 17.72Q339.88 18.31 339.37 18.84L339.37 18.84Q338.73 19.52 338.04 19.87Q337.36 20.23 336.67 20.23L336.67 20.23Q336.32 20.23 335.98 20.15Q335.64 20.08 335.33 19.94Q335.03 19.81 334.80 19.64Q334.57 19.46 334.47 19.26L334.47 19.26Q334.47 19.10 334.67 18.97L334.67 18.97Q334.84 19.12 334.95 19.21Q335.06 19.29 335.17 19.35Q335.27 19.40 335.39 19.42Q335.51 19.43 335.66 19.43L335.66 19.43Q336.46 19.43 337.22 18.96Q337.99 18.49 338.67 17.63Q339.35 16.77 339.91 15.55Q340.47 14.32 340.86 12.81L340.86 12.81Q340.68 13.09 340.41 13.50Q340.14 13.90 339.82 14.30Q339.50 14.70 339.16 15.02Q338.81 15.34 338.49 15.46L338.49 15.46Q338.27 15.44 338.02 15.37Q337.78 15.29 337.56 15.15Q337.34 15.01 337.18 14.81Q337.01 14.62 336.95 14.36L336.95 14.36Q336.95 13.96 336.98 13.71Q337.01 13.47 337.08 13.17L337.08 13.17Q337.20 12.64 337.45 11.97Q337.69 11.30 338.02 10.65Q338.35 10.00 338.75 9.43Q339.15 8.86 339.58 8.54L339.58 8.54Q339.70 8.54 339.86 8.56Q340.03 8.58 340.21 8.64Q340.40 8.69 340.56 8.77Q340.73 8.85 340.86 8.97L340.86 8.97Q340.70 9.11 340.19 9.91Q339.67 10.71 339.04 12.21L339.04 12.21Q338.97 12.36 338.87 12.66Q338.77 12.95 338.68 13.27Q338.59 13.59 338.52 13.90Q338.45 14.21 338.45 14.39L338.45 14.39Q338.45 14.50 338.48 14.56Q338.52 14.62 338.55 14.64L338.55 14.64Q338.80 14.60 339.22 14.23Q339.64 13.86 340.17 13.08L340.17 13.08Q340.51 12.57 340.79 12.07Q341.07 11.58 341.34 11.07Q341.61 10.57 341.91 10.04Q342.20 9.51 342.54 8.95L342.54 8.95Q342.72 8.95 342.93 8.99Q343.14 9.03 343.34 9.09Q343.53 9.16 343.68 9.23Q343.83 9.31 343.90 9.39L343.90 9.39Q343.46 10.32 343.08 11.20Q342.71 12.08 342.41 13.01Z"></path></g></svg>