<svg data-v-423bf9ae="" xmlns="http://www.w3.org/2000/svg" viewBox="0 0 298.57142509593916 60" class="font"><!----><!----><!----><g data-v-423bf9ae="" id="317496de-cdb8-4d6a-a57c-f9d9a4ca6872" fill="black" transform="matrix(5.102040717026833,0,0,5.102040717026833,-3.214284145102255,-10)"><path d="M7.64 11.07L7.70 11.07L11.34 2.80L14.48 2.80L14.48 3.33Q14.03 3.35 13.76 3.44Q13.48 3.54 13.34 3.77Q13.19 4.00 13.14 4.41Q13.09 4.82 13.09 5.45L13.09 5.45L13.09 10.93Q13.09 11.63 13.15 12.04Q13.20 12.45 13.36 12.67Q13.52 12.89 13.83 12.96Q14.13 13.03 14.62 13.05L14.62 13.05L14.62 13.58L10.08 13.58L10.08 13.05Q10.57 13.03 10.87 12.96Q11.17 12.88 11.34 12.67Q11.51 12.46 11.56 12.07Q11.62 11.69 11.62 11.03L11.62 11.03L11.62 4.54L11.48 4.54L7.39 13.72L7.08 13.72L3.07 4.54L3.01 4.54L3.01 10.93Q3.01 11.63 3.07 12.04Q3.12 12.45 3.28 12.67Q3.44 12.89 3.75 12.96Q4.05 13.03 4.54 13.05L4.54 13.05L4.54 13.58L0.63 13.58L0.63 13.05Q1.12 13.03 1.42 12.96Q1.72 12.88 1.89 12.67Q2.06 12.46 2.11 12.07Q2.17 11.69 2.17 11.03L2.17 11.03L2.17 5.35Q2.17 4.76 2.12 4.38Q2.07 3.99 1.93 3.77Q1.78 3.54 1.50 3.45Q1.22 3.36 0.77 3.33L0.77 3.33L0.77 2.80L4.12 2.80L7.64 11.07ZM21.78 11.89L22.22 12.28Q21.03 13.72 19.26 13.72L19.26 13.72Q18.44 13.72 17.77 13.45Q17.09 13.17 16.61 12.68Q16.13 12.18 15.86 11.49Q15.60 10.79 15.60 9.95L15.60 9.95Q15.60 9.10 15.88 8.37Q16.16 7.64 16.67 7.13Q17.18 6.61 17.89 6.31Q18.59 6.02 19.43 6.02L19.43 6.02Q20.79 6.02 21.53 6.75Q22.27 7.49 22.27 8.86L22.27 8.86Q22.27 9.06 22.20 9.10Q22.12 9.14 21.84 9.14L21.84 9.14L17.23 9.14Q17.21 9.25 17.19 9.41Q17.18 9.58 17.18 9.77L17.18 9.77Q17.18 10.50 17.35 11.10Q17.53 11.69 17.86 12.11Q18.19 12.53 18.64 12.76Q19.10 12.99 19.66 12.99L19.66 12.99Q20.24 12.99 20.75 12.73Q21.25 12.47 21.78 11.89L21.78 11.89ZM17.33 8.50L19.91 8.50Q20.19 8.50 20.36 8.48Q20.52 8.47 20.61 8.43Q20.69 8.39 20.72 8.31Q20.75 8.23 20.75 8.11L20.75 8.11Q20.75 7.46 20.34 7.08Q19.92 6.69 19.21 6.69L19.21 6.69Q17.70 6.69 17.33 8.50L17.33 8.50ZM29.71 13.72L29.71 12.40L29.65 12.40Q29.15 13.12 28.58 13.42Q28.01 13.72 27.24 13.72L27.24 13.72Q26.45 13.72 25.78 13.43Q25.12 13.15 24.63 12.63Q24.15 12.12 23.88 11.41Q23.60 10.70 23.60 9.86L23.60 9.86Q23.60 9.03 23.88 8.32Q24.15 7.62 24.63 7.10Q25.12 6.59 25.79 6.31Q26.46 6.02 27.24 6.02L27.24 6.02Q27.92 6.02 28.44 6.24Q28.97 6.47 29.46 6.96L29.46 6.96L29.46 5.53Q29.46 4.73 29.44 4.20Q29.41 3.67 29.37 3.47L29.37 3.47Q29.30 3.16 28.98 3.04Q28.66 2.91 27.93 2.91L27.93 2.91L27.93 2.49L30.80 1.96L30.80 10.04Q30.80 11.00 30.81 11.63Q30.83 12.25 30.90 12.52L30.90 12.52Q30.94 12.68 31.00 12.80Q31.07 12.91 31.19 12.97Q31.30 13.03 31.51 13.06Q31.71 13.09 32.03 13.09L32.03 13.09L32.03 13.57L29.71 13.72ZM29.43 10.23L29.43 9.31Q29.43 8.58 29.35 8.20Q29.27 7.83 29.05 7.55L29.05 7.55Q28.73 7.13 28.23 6.91Q27.73 6.69 27.24 6.69L27.24 6.69Q26.24 6.69 25.71 7.53Q25.19 8.36 25.19 9.79L25.19 9.79Q25.19 10.53 25.32 11.13Q25.45 11.73 25.71 12.16Q25.97 12.59 26.36 12.82Q26.74 13.05 27.24 13.05L27.24 13.05Q27.50 13.05 27.76 12.99Q28.01 12.94 28.26 12.82Q28.50 12.70 28.71 12.54Q28.92 12.38 29.06 12.17L29.06 12.17Q29.26 11.86 29.34 11.42Q29.43 10.99 29.43 10.23L29.43 10.23ZM35.57 6.02L35.57 11.35Q35.57 11.90 35.62 12.23Q35.67 12.56 35.81 12.75Q35.95 12.94 36.20 13.01Q36.46 13.08 36.88 13.09L36.88 13.09L36.88 13.58L32.86 13.58L32.86 13.09Q33.28 13.08 33.54 13.00Q33.81 12.92 33.96 12.75Q34.10 12.57 34.15 12.26Q34.20 11.94 34.20 11.45L34.20 11.45L34.20 9.66Q34.20 8.85 34.18 8.32Q34.16 7.80 34.10 7.60L34.10 7.60Q34.03 7.28 33.78 7.16Q33.53 7.04 32.83 7.04L32.83 7.04L32.83 6.55L35.57 6.02ZM33.96 3.18L33.96 3.18Q33.96 2.81 34.22 2.56Q34.47 2.31 34.83 2.31L34.83 2.31Q35.20 2.31 35.45 2.56Q35.70 2.81 35.70 3.18L35.70 3.18Q35.70 3.54 35.45 3.79Q35.20 4.05 34.83 4.05L34.83 4.05Q34.47 4.05 34.22 3.79Q33.96 3.54 33.96 3.18ZM38.56 7.04L37.72 7.04L37.72 6.52Q38.46 6.09 38.88 5.66Q39.30 5.22 39.52 4.62L39.52 4.62L39.93 4.62L39.93 6.38L41.80 6.38L41.80 7.04L39.93 7.04L39.93 11.30Q39.93 11.79 39.98 12.12Q40.03 12.46 40.14 12.66Q40.25 12.87 40.43 12.95Q40.61 13.03 40.89 13.03L40.89 13.03Q41.24 13.03 41.49 12.89Q41.73 12.74 41.97 12.39L41.97 12.39L42.32 12.66Q42.13 13.17 41.64 13.45Q41.16 13.72 40.45 13.72L40.45 13.72Q39.52 13.72 39.04 13.28Q38.56 12.84 38.56 12.01L38.56 12.01L38.56 7.04ZM47.33 10.54L47.33 9.44Q46.54 9.74 45.98 10.04Q45.43 10.33 45.09 10.63Q44.76 10.92 44.61 11.21Q44.46 11.51 44.46 11.82L44.46 11.82Q44.46 12.28 44.77 12.57Q45.08 12.87 45.58 12.87L45.58 12.87Q45.95 12.87 46.26 12.68Q46.58 12.50 46.82 12.19Q47.05 11.87 47.19 11.45Q47.33 11.02 47.33 10.54L47.33 10.54ZM45.32 9.72L47.33 8.83L47.33 8.26Q47.33 6.55 45.88 6.55L45.88 6.55Q45.64 6.55 45.47 6.59Q45.30 6.64 45.19 6.73Q45.08 6.83 44.99 7.01Q44.90 7.20 44.81 7.46L44.81 7.46Q44.66 7.87 44.51 8.00Q44.37 8.13 44.09 8.13L44.09 8.13Q43.39 8.13 43.39 7.43L43.39 7.43Q43.39 6.76 44.10 6.39Q44.81 6.02 46.13 6.02L46.13 6.02Q47.53 6.02 48.12 6.52Q48.71 7.01 48.71 8.20L48.71 8.20L48.71 11.34Q48.71 12.94 49.34 12.94L49.34 12.94Q49.53 12.94 49.71 12.89Q49.90 12.84 50.02 12.63L50.02 12.63L50.22 12.96Q50.05 13.29 49.60 13.50Q49.15 13.72 48.66 13.72L48.66 13.72Q48.05 13.72 47.75 13.33Q47.45 12.94 47.45 12.22L47.45 12.22L47.38 12.22Q47.01 12.91 46.37 13.31Q45.72 13.71 44.94 13.71L44.94 13.71Q44.06 13.71 43.55 13.26Q43.05 12.81 43.05 12.05L43.05 12.05Q43.05 11.72 43.17 11.41Q43.29 11.10 43.55 10.82Q43.82 10.54 44.25 10.27Q44.69 10.00 45.32 9.72L45.32 9.72ZM53.40 6.02L53.40 11.35Q53.40 11.90 53.45 12.23Q53.49 12.56 53.63 12.75Q53.77 12.94 54.03 13.01Q54.28 13.08 54.70 13.09L54.70 13.09L54.70 13.58L50.68 13.58L50.68 13.09Q51.10 13.08 51.37 13.00Q51.63 12.92 51.78 12.75Q51.93 12.57 51.98 12.26Q52.02 11.94 52.02 11.45L52.02 11.45L52.02 9.66Q52.02 8.85 52.00 8.32Q51.98 7.80 51.93 7.60L51.93 7.60Q51.86 7.28 51.60 7.16Q51.35 7.04 50.65 7.04L50.65 7.04L50.65 6.55L53.40 6.02ZM51.79 3.18L51.79 3.18Q51.79 2.81 52.04 2.56Q52.29 2.31 52.65 2.31L52.65 2.31Q53.02 2.31 53.27 2.56Q53.52 2.81 53.52 3.18L53.52 3.18Q53.52 3.54 53.27 3.79Q53.02 4.05 52.65 4.05L52.65 4.05Q52.29 4.05 52.04 3.79Q51.79 3.54 51.79 3.18ZM57.90 1.96L57.90 11.40Q57.90 11.93 57.95 12.25Q57.99 12.57 58.12 12.75Q58.25 12.94 58.50 13.01Q58.74 13.08 59.15 13.09L59.15 13.09L59.15 13.58L55.29 13.58L55.29 13.09Q55.71 13.08 55.96 13.00Q56.21 12.92 56.36 12.75Q56.50 12.59 56.55 12.29Q56.60 11.98 56.60 11.49L56.60 11.49L56.60 5.46Q56.60 4.70 56.58 4.19Q56.56 3.68 56.52 3.50L56.52 3.50Q56.45 3.18 56.19 3.07Q55.93 2.95 55.26 2.95L55.26 2.95L55.26 2.48L57.90 1.96Z"></path></g><!----><!----></svg>